<svg width="current" height="current" viewBox="0 0 25 24" fill="current" xmlns="http://www.w3.org/2000/svg">
<path class="delete" d="M13.5 0H11.5C10.7044 0 9.94129 0.31607 9.37868 0.87868C8.81607 1.44129 8.5 2.20435 8.5 3V4H2.5C2.23478 4 1.98043 4.10536 1.79289 4.29289C1.60536 4.48043 1.5 4.73478 1.5 5C1.5 5.26522 1.60536 5.51957 1.79289 5.70711C1.98043 5.89464 2.23478 6 2.5 6H3.5V20C3.5 21.0609 3.92143 22.0783 4.67157 22.8284C5.42172 23.5786 6.43913 24 7.5 24H17.5C18.5609 24 19.5783 23.5786 20.3284 22.8284C21.0786 22.0783 21.5 21.0609 21.5 20V6H22.5C22.7652 6 23.0196 5.89464 23.2071 5.70711C23.3946 5.51957 23.5 5.26522 23.5 5C23.5 4.73478 23.3946 4.48043 23.2071 4.29289C23.0196 4.10536 22.7652 4 22.5 4H16.5V3C16.5 2.20435 16.1839 1.44129 15.6213 0.87868C15.0587 0.31607 14.2956 0 13.5 0ZM10.5 3C10.5 2.73478 10.6054 2.48043 10.7929 2.29289C10.9804 2.10536 11.2348 2 11.5 2H13.5C13.7652 2 14.0196 2.10536 14.2071 2.29289C14.3946 2.48043 14.5 2.73478 14.5 3V4H10.5V3ZM19.5 20C19.5 20.5304 19.2893 21.0391 18.9142 21.4142C18.5391 21.7893 18.0304 22 17.5 22H7.5C6.96957 22 6.46086 21.7893 6.08579 21.4142C5.71071 21.0391 5.5 20.5304 5.5 20V6H19.5V20Z" fill="#767676"/>
<path class="delete" d="M12.5 9C12.2348 9 11.9804 9.10536 11.7929 9.29289C11.6054 9.48043 11.5 9.73478 11.5 10V18C11.5 18.2652 11.6054 18.5196 11.7929 18.7071C11.9804 18.8946 12.2348 19 12.5 19C12.7652 19 13.0196 18.8946 13.2071 18.7071C13.3946 18.5196 13.5 18.2652 13.5 18V10C13.5 9.73478 13.3946 9.48043 13.2071 9.29289C13.0196 9.10536 12.7652 9 12.5 9ZM15.5 18C15.5 18.2652 15.6054 18.5196 15.7929 18.7071C15.9804 18.8946 16.2348 19 16.5 19C16.7652 19 17.0196 18.8946 17.2071 18.7071C17.3946 18.5196 17.5 18.2652 17.5 18V10C17.5 9.73478 17.3946 9.48043 17.2071 9.29289C17.0196 9.10536 16.7652 9 16.5 9C16.2348 9 15.9804 9.10536 15.7929 9.29289C15.6054 9.48043 15.5 9.73478 15.5 10V18ZM8.5 9C8.23478 9 7.98043 9.10536 7.79289 9.29289C7.60536 9.48043 7.5 9.73478 7.5 10V18C7.5 18.2652 7.60536 18.5196 7.79289 18.7071C7.98043 18.8946 8.23478 19 8.5 19C8.76522 19 9.01957 18.8946 9.20711 18.7071C9.39464 18.5196 9.5 18.2652 9.5 18V10C9.5 9.73478 9.39464 9.48043 9.20711 9.29289C9.01957 9.10536 8.76522 9 8.5 9Z" fill="#767676"/>
</svg>
