<svg width="current" height="current" viewBox="0 0 32 32" fill="none" xmlns="http://www.w3.org/2000/svg">
<path d="M28 9.75H4C3.53587 9.75 3.09075 9.56563 2.76256 9.23744C2.43437 8.90925 2.25 8.46413 2.25 8C2.25 7.53587 2.43437 7.09075 2.76256 6.76256C3.09075 6.43437 3.53587 6.25 4 6.25H28C28.4641 6.25 28.9092 6.43437 29.2374 6.76256C29.5656 7.09075 29.75 7.53587 29.75 8C29.75 8.46413 29.5656 8.90925 29.2374 9.23744C28.9092 9.56563 28.4641 9.75 28 9.75ZM4 14.25H28C28.4641 14.25 28.9092 14.4344 29.2374 14.7626C29.5656 15.0908 29.75 15.5359 29.75 16C29.75 16.4641 29.5656 16.9092 29.2374 17.2374C28.9092 17.5656 28.4641 17.75 28 17.75H4C3.53587 17.75 3.09075 17.5656 2.76256 17.2374C2.43437 16.9092 2.25 16.4641 2.25 16C2.25 15.5359 2.43437 15.0908 2.76256 14.7626C3.09075 14.4344 3.53587 14.25 4 14.25ZM4 22.25H28C28.4641 22.25 28.9092 22.4344 29.2374 22.7626C29.5656 23.0908 29.75 23.5359 29.75 24C29.75 24.4641 29.5656 24.9092 29.2374 25.2374C28.9092 25.5656 28.4641 25.75 28 25.75H4C3.53587 25.75 3.09075 25.5656 2.76256 25.2374C2.43437 24.9092 2.25 24.4641 2.25 24C2.25 23.5359 2.43437 23.0908 2.76256 22.7626C3.09075 22.4344 3.53587 22.25 4 22.25Z" fill="current" stroke="black" stroke-width="0.5"/>
</svg>
